<svg xmlns="http://www.w3.org/2000/svg" width="16" height="16" fill="none"><path fill="#2E2F42" d="M13.3 6c-.2 0-.4 0-.6.2a1.3 1.3 0 0 0-2.2-.9 1.3 1.3 0 0 0-1.8-.5V1.3a1.3 1.3 0 0 0-2.7 0v9l-.2.2h-.3l-2.1-1a1.4 1.4 0 0 0-2 1.2v.5l3.9 3.6c.8.8 1.8 1.2 3 1.2h2c2.4 0 4.4-2 4.4-4.3V7.3c0-.7-.6-1.3-1.4-1.3Zm.7 5.7c0 2-1.6 3.6-3.7 3.6h-2c-1 0-1.9-.3-2.6-1L2 11v-.2a.7.7 0 0 1 1-.6l2.2 1c.3.2.7.2 1 0 .3-.2.5-.5.5-.8v-9a.7.7 0 0 1 1.3 0v5a.3.3 0 1 0 .7 0V6A.7.7 0 0 1 10 6v.3a.3.3 0 0 0 .7 0 .7.7 0 0 1 1.3 0v1a.3.3 0 1 0 .7 0 .7.7 0 0 1 1.3 0v4.4Z"/></svg>