<svg xmlns="http://www.w3.org/2000/svg" width="16" height="16" fill="none"><g fill="#F4F4FD" clip-path="url(#a)"><path d="M16 4.7c0-.8-.2-1.4-.4-2-.2-.5-.5-1-1-1.4a4 4 0 0 0-1.3-.9l-2-.4a54.6 54.6 0 0 0-8.5.4c-.5.2-1 .5-1.4 1a4 4 0 0 0-1 1.4c-.1.5-.3 1-.3 1.9a54.6 54.6 0 0 0 .3 8.5l1 1.5c.4.4.9.7 1.4.9l2 .4a58.6 58.6 0 0 0 8.5-.4 4 4 0 0 0 2.3-2.4l.4-1.9a58.7 58.7 0 0 0 0-6.6Zm-1.5 6.5c0 .8-.1 1.2-.2 1.5-.3.7-.9 1.3-1.6 1.5a56.3 56.3 0 0 1-9.4 0c-.3 0-.6-.3-.9-.6-.3-.2-.5-.5-.6-.9l-.3-1.5a56.3 56.3 0 0 1 .3-8c.1-.3.3-.6.6-.8.3-.3.6-.5 1-.6.2-.1.6-.3 1.4-.3a56.4 56.4 0 0 1 8 .3l.9.6.6.9c0 .3.2.7.2 1.5a56.4 56.4 0 0 1 0 6.4Z"/><path d="M8 3.9A4.1 4.1 0 1 0 8 12 4.1 4.1 0 0 0 8 4Zm0 6.8a2.7 2.7 0 1 1 0-5.4 2.7 2.7 0 0 1 0 5.4ZM13.3 3.7a1 1 0 1 1-2 0 1 1 0 0 1 2 0Z"/></g><defs><clipPath id="a"><path fill="#fff" d="M0 0h16v16H0z"/></clipPath></defs></svg>